<svg xmlns="http://www.w3.org/2000/svg" version="1.1" xmlns:xlink="http://www.w3.org/1999/xlink" xmlns:svgjs="http://svgjs.dev/svgjs" width="1500" height="1500" viewBox="0 0 1500 1500"><rect width="1500" height="1500" fill="#333366"></rect><g transform="matrix(0.6666666666666666,0,0,0.6666666666666666,250.00011562499986,187.66666666666674)"><svg viewBox="0 0 320 360" data-background-color="#333366" preserveAspectRatio="xMidYMid meet" height="1687" width="1500" xmlns="http://www.w3.org/2000/svg" xmlns:xlink="http://www.w3.org/1999/xlink"><g id="tight-bounds" transform="matrix(1,0,0,1,-0.0000369999999634274,0)"><svg viewBox="0 0 320 360" height="360" width="320"><g><svg></svg></g><g><svg viewBox="0 0 320 360" height="360" width="320"><g><path transform="translate(-29.57346,-9.38389) scale(3.79147,3.79147)" d="M50 13.6c19.1 0 34.8 14.8 36.3 33.5h5.9c-0.3-4.7-1.4-9.2-3.2-13.5-2.1-5-5.2-9.6-9.1-13.4-3.9-3.9-8.4-6.9-13.4-9.1-5.3-2.2-10.8-3.4-16.5-3.4-5.7 0-11.2 1.1-16.5 3.3-5 2.1-9.6 5.2-13.4 9.1-3.9 3.9-6.9 8.4-9.1 13.4-1.8 4.3-2.9 8.9-3.2 13.5h5.9c1.5-18.6 17.2-33.4 36.3-33.4zM50 86.4c-19.1 0-34.8-14.8-36.3-33.5h-5.9c0.3 4.7 1.4 9.2 3.2 13.5 2.1 5 5.2 9.6 9.1 13.4 3.9 3.9 8.4 6.9 13.4 9.1 5.2 2.2 10.7 3.3 16.5 3.3 5.8 0 11.2-1.1 16.5-3.3 5-2.1 9.6-5.2 13.4-9.1 3.9-3.9 6.9-8.4 9.1-13.4 1.8-4.3 2.9-8.9 3.2-13.5h-5.9c-1.5 18.7-17.2 33.5-36.3 33.5z" fill="#ffffff" fill-rule="nonzero" stroke="none" stroke-width="1" stroke-linecap="butt" stroke-linejoin="miter" stroke-miterlimit="10" stroke-dasharray="" stroke-dashoffset="0" font-family="none" font-weight="none" font-size="none" text-anchor="none" style="mix-blend-mode: normal" data-fill-palette-color="tertiary"></path></g><g transform="matrix(1,0,0,1,56,142.16385779031208)"><svg viewBox="0 0 208 75.67228441937583" height="75.67228441937583" width="208"><g><svg viewBox="0 0 208 75.67228441937583" height="75.67228441937583" width="208"><g><svg viewBox="0 0 353.3281994213719 128.54399999999998" height="75.67228441937583" width="208"><g transform="matrix(1,0,0,1,145.32819942137192,13.577427120858594)"><svg viewBox="0 0 208 101.3891457582828" height="101.3891457582828" width="208"><g id="textblocktransform"><svg viewBox="0 0 208 101.3891457582828" height="101.3891457582828" width="208" id="textblock"><g><svg viewBox="0 0 208 71.09659356042931" height="71.09659356042931" width="208"><g transform="matrix(1,0,0,1,0,0)"><svg width="208" viewBox="4.22 -35.77 104.64 35.77" height="71.09659356042931" data-palette-color="#ffffff"><path d="M8.5 0L4.22 0 6.93-35.77 14.11-35.77 22.95-10.79 24.32-6.13 24.8-6.13 26.15-10.79 35.01-35.77 42.21-35.77 44.92 0 40.21 0 38.31-28.08 38.11-33.2 37.65-33.2 36.23-28.32 26.56-0.73 22.24-0.73 12.48-28.27 11.01-33.2 10.55-33.2 10.4-28.13 8.5 0ZM78.51-35.77L66.04-15.67 66.04 0 61.25 0 61.25-15.63 49.41-35.77 54.88-35.77 61.74-22.88 63.91-18.09 64.4-18.09 66.72-22.83 73.73-35.77 78.51-35.77ZM90.55-31.98L90.55 0 85.76 0 85.76-35.77 95.53-35.77Q98.36-35.77 100.79-35.05 103.22-34.33 105.01-32.93 106.81-31.54 107.83-29.48 108.86-27.42 108.86-24.71L108.86-24.71Q108.86-22.78 108.34-21.13 107.83-19.48 106.92-18.14 106-16.8 104.78-15.76 103.56-14.72 102.14-14.01 100.73-13.31 99.19-12.94 97.65-12.57 96.11-12.57L96.11-12.57Q95.82-12.57 95.48-12.59 95.14-12.6 94.65-12.67L94.65-12.67 94.99-16.33Q95.43-16.26 95.75-16.25 96.06-16.24 96.38-16.24L96.38-16.24Q97.94-16.24 99.32-16.71 100.7-17.19 101.74-18.16 102.78-19.14 103.38-20.62 103.97-22.09 103.97-24.12L103.97-24.12Q103.97-26.2 103.33-27.69 102.68-29.17 101.47-30.13 100.26-31.08 98.52-31.53 96.77-31.98 94.6-31.98L94.6-31.98 90.55-31.98Z" opacity="1" transform="matrix(1,0,0,1,0,0)" fill="#ffffff" class="wordmark-text-0" data-fill-palette-color="primary" id="text-0"></path></svg></g></svg></g><g transform="matrix(1,0,0,1,0,87.88079298180122)"><svg viewBox="0 0 208 13.50835277648157" height="13.50835277648157" width="208"><g transform="matrix(1,0,0,1,0,0)"><svg width="208" viewBox="4.35 -35.25 548.16 35.6" height="13.50835277648157" data-palette-color="#ffffff"><path d="M21.1-9.7L34.3-35.25 37.65-35.25 37.65 0 33.9 0 33.95-27.3 22.5-5.6 19.6-5.6 8.1-27.1 8.15 0 4.35 0 4.35-35.25 7.75-35.25 21.1-9.7ZM114.95-35.25L119.6-35.25 105.75-16.65 105.75 0 101.65 0 101.65-16.7 87.8-35.25 92.55-35.25 103.75-20.05 114.95-35.25ZM229.31 0L229.31-35.25 243.26-35.25Q248.81-35.25 251.88-32.55 254.96-29.85 254.96-24.9L254.96-24.9Q254.96-19.95 251.86-17.2 248.76-14.45 243.26-14.45L243.26-14.45 233.41-14.45 233.41 0 229.31 0ZM233.41-17.85L242.86-17.85Q250.91-17.85 250.91-24.9L250.91-24.9Q250.91-31.85 242.86-31.85L242.86-31.85 233.41-31.85 233.41-17.85ZM319.86-24.95Q328.61-24.95 328.61-15.3L328.61-15.3 328.61 0 324.56 0 324.56-15.05Q324.56-18.45 323.23-20 321.91-21.55 319.01-21.55L319.01-21.55Q315.66-21.55 313.66-19.5 311.66-17.45 311.66-13.95L311.66-13.95 311.66 0 307.61 0 307.61-35.25 311.66-35.25 311.66-20.45Q312.86-22.65 314.98-23.8 317.11-24.95 319.86-24.95L319.86-24.95ZM392.76 0.35Q389.31 0.35 386.69-1.2 384.06-2.75 382.64-5.63 381.21-8.5 381.21-12.3L381.21-12.3Q381.21-16.1 382.64-18.98 384.06-21.85 386.69-23.4 389.31-24.95 392.76-24.95L392.76-24.95Q396.21-24.95 398.86-23.4 401.51-21.85 402.94-18.98 404.36-16.1 404.36-12.3L404.36-12.3Q404.36-8.5 402.94-5.63 401.51-2.75 398.86-1.2 396.21 0.35 392.76 0.35L392.76 0.35ZM392.76-3Q396.36-3 398.29-5.38 400.21-7.75 400.21-12.3L400.21-12.3Q400.21-16.75 398.26-19.18 396.31-21.6 392.76-21.6L392.76-21.6Q389.21-21.6 387.26-19.18 385.31-16.75 385.31-12.3L385.31-12.3Q385.31-7.8 387.24-5.4 389.16-3 392.76-3L392.76-3ZM469.31-24.95Q478.06-24.95 478.06-15.3L478.06-15.3 478.06 0 474.01 0 474.01-15.05Q474.01-18.45 472.69-20 471.36-21.55 468.46-21.55L468.46-21.55Q465.11-21.55 463.11-19.5 461.11-17.45 461.11-13.95L461.11-13.95 461.11 0 457.06 0 457.06-24.35 461.06-24.35 461.06-20.35Q462.26-22.6 464.41-23.78 466.56-24.95 469.31-24.95L469.31-24.95ZM552.51-13.05L552.51-11.55 534.71-11.55Q534.91-7.3 537.01-5.13 539.11-2.95 542.96-2.95L542.96-2.95Q547.21-2.95 550.76-5.85L550.76-5.85 552.11-2.9Q550.51-1.4 548.01-0.53 545.51 0.35 542.91 0.35L542.91 0.35Q537.21 0.35 533.94-3 530.66-6.35 530.66-12.25L530.66-12.25Q530.66-16 532.11-18.88 533.56-21.75 536.19-23.35 538.81-24.95 542.16-24.95L542.16-24.95Q547.01-24.95 549.76-21.78 552.51-18.6 552.51-13.05L552.51-13.05ZM542.21-21.8Q539.01-21.8 537.09-19.8 535.16-17.8 534.81-14.15L534.81-14.15 548.96-14.15Q548.86-17.85 547.11-19.83 545.36-21.8 542.21-21.8L542.21-21.8Z" opacity="1" transform="matrix(1,0,0,1,0,0)" fill="#ffffff" class="slogan-text-1" data-fill-palette-color="secondary" id="text-1"></path></svg></g></svg></g></svg></g></svg></g><g><svg viewBox="0 0 128.544 128.54399999999998" height="128.54399999999998" width="128.544"><g><svg xmlns="http://www.w3.org/2000/svg" xmlns:xlink="http://www.w3.org/1999/xlink" version="1.1" x="0" y="0" viewBox="17.4 18.299999999999997 66.80000000000001 66.8" enable-background="new 0 0 100 100" xml:space="preserve" height="128.54399999999998" width="128.544" class="icon-icon-0" data-fill-palette-color="accent" id="icon-0"><g fill="#ffffff" data-fill-palette-color="accent"><path fill="#ffffff" d="M80.7 54.4h-7.2v-5.4h7.2c1.9 0 3.5-1.6 3.5-3.5 0-1.9-1.6-3.5-3.5-3.5h-7.2v-5.2c0-4.3-3.5-7.8-7.8-7.8h-5.2v-7.2c0-1.9-1.6-3.5-3.5-3.5-1.9 0-3.5 1.6-3.5 3.5V29h-5.4v-7.2c0-1.9-1.6-3.5-3.5-3.5-1.9 0-3.5 1.6-3.5 3.5V29h-5.2c-4.3 0-7.8 3.5-7.8 7.8v5.2h-7.2c-1.9 0-3.5 1.6-3.5 3.5 0 1.9 1.6 3.5 3.5 3.5h7.2v5.4h-7.2c-1.9 0-3.5 1.6-3.5 3.5s1.6 3.5 3.5 3.5h7.2v5.2c0 4.3 3.5 7.8 7.8 7.8h5.2v7.2c0 1.9 1.6 3.5 3.5 3.5 1.9 0 3.5-1.6 3.5-3.5v-7.2h5.4v7.2c0 1.9 1.6 3.5 3.5 3.5 1.9 0 3.5-1.6 3.5-3.5v-7.2h5.2c4.3 0 7.8-3.5 7.8-7.8v-5.2h7.2c1.9 0 3.5-1.6 3.5-3.5S82.6 54.4 80.7 54.4zM66.5 66.6c0 0.4-0.3 0.8-0.8 0.8H35.9c-0.4 0-0.8-0.3-0.8-0.8V36.7c0-0.4 0.3-0.8 0.8-0.8h29.9c0.4 0 0.8 0.3 0.8 0.8V66.6z" data-fill-palette-color="accent"></path><path fill="#ffffff" d="M57.8 43.6h-14c-0.6 0-1.1 0.5-1.1 1.1v14c0 0.6 0.5 1.1 1.1 1.1h14c0.6 0 1.1-0.5 1.1-1.1v-14C58.9 44 58.4 43.6 57.8 43.6z" data-fill-palette-color="accent"></path></g></svg></g></svg></g></svg></g></svg></g></svg></g></svg></g><defs></defs></svg><rect width="320" height="360" fill="none" stroke="none" visibility="hidden"></rect></g></svg></g></svg>