<svg width="51" height="51" viewBox="0 0 51 51" fill="none" xmlns="http://www.w3.org/2000/svg">
    <mask id="mask0_401_12286" style="mask-type:alpha" maskUnits="userSpaceOnUse" x="0" y="0" width="51" height="51">
        <rect opacity="0.1" y="0.75" width="50.35" height="49.5" rx="14" fill="white"/>
    </mask>
    <g mask="url(#mask0_401_12286)">
        <rect y="0.75" width="50.35" height="49.5" rx="14" fill="#148A99"/>
    </g>
    <path d="M35.4863 34.9398V32.8419C35.4863 30.8868 34.1717 29.2441 32.3926 28.7783M28.7832 16.3636C30.2949 16.986 31.3613 18.4936 31.3613 20.2544C31.3613 22.0153 30.2949 23.5228 28.7832 24.1453M30.3301 34.9398C30.3301 32.9848 30.3301 32.0073 30.0161 31.2363C29.5974 30.2082 28.7944 29.3913 27.7836 28.9655C27.0256 28.6461 26.0646 28.6461 24.1426 28.6461H21.0488C19.1268 28.6461 18.1658 28.6461 17.4078 28.9655C16.397 29.3913 15.594 30.2082 15.1753 31.2363C14.8613 32.0073 14.8613 32.9848 14.8613 34.9398M26.7207 20.2544C26.7207 22.5717 24.8739 24.4503 22.5957 24.4503C20.3175 24.4503 18.4707 22.5717 18.4707 20.2544C18.4707 17.9371 20.3175 16.0586 22.5957 16.0586C24.8739 16.0586 26.7207 17.9371 26.7207 20.2544Z" stroke="#148A99" stroke-width="2" stroke-linecap="round" stroke-linejoin="round"/>
</svg>
