<svg width="51" height="51" viewBox="0 0 51 51" fill="none" xmlns="http://www.w3.org/2000/svg">
    <mask id="mask0_401_12305" style="mask-type:alpha" maskUnits="userSpaceOnUse" x="0" y="0" width="51" height="51">
        <rect opacity="0.1" x="0.333008" y="0.75" width="50.35" height="49.5" rx="14" fill="white"/>
    </mask>
    <g mask="url(#mask0_401_12305)">
        <rect x="0.333008" y="0.75" width="50.35" height="49.5" rx="14" fill="#F49E40"/>
    </g>
    <path d="M26.5381 24.4503H31.4881C32.6432 24.4503 33.2207 24.4503 33.6619 24.6789C34.05 24.8801 34.3655 25.201 34.5633 25.5957C34.7881 26.0445 34.7881 26.632 34.7881 27.8069V34.9398M26.5381 34.9398V19.4153C26.5381 18.2403 26.5381 17.6528 26.3133 17.2041C26.1155 16.8093 25.8 16.4884 25.4119 16.2873C24.9707 16.0586 24.3932 16.0586 23.2381 16.0586H19.5256C18.3705 16.0586 17.7929 16.0586 17.3517 16.2873C16.9636 16.4884 16.6481 16.8093 16.4504 17.2041C16.2256 17.6528 16.2256 18.2403 16.2256 19.4153V34.9398M35.8193 34.9398H15.1943M19.835 20.2544H22.9287M19.835 24.4503H22.9287M19.835 28.6461H22.9287" stroke="#F49E40" stroke-width="2" stroke-linecap="round" stroke-linejoin="round"/>
</svg>
