<svg width="52" height="51" viewBox="0 0 52 51" fill="none" xmlns="http://www.w3.org/2000/svg">
    <mask id="mask0_401_12294" style="mask-type:alpha" maskUnits="userSpaceOnUse" x="0" y="0" width="52" height="51">
        <rect opacity="0.1" x="0.666992" y="0.75" width="50.35" height="49.5" rx="14" fill="white"/>
    </mask>
    <g mask="url(#mask0_401_12294)">
        <rect x="0.666992" y="0.75" width="50.35" height="49.5" rx="14" fill="#BB3840"/>
    </g>
    <path d="M17.5908 27.5973L19.2147 34.2043C19.2603 34.3901 19.2832 34.483 19.3102 34.5641C19.5741 35.3566 20.2757 35.9138 21.0955 35.982C21.1795 35.989 21.2736 35.989 21.4619 35.989C21.6977 35.989 21.8156 35.989 21.9149 35.9792C22.8966 35.8824 23.6735 35.0921 23.7687 34.0936C23.7783 33.9926 23.7783 33.8727 23.7783 33.6328V18.6812M32.5439 27.0729C34.5373 27.0729 36.1533 25.4291 36.1533 23.4015C36.1533 21.3739 34.5373 19.7301 32.5439 19.7301M24.0361 18.6812H20.1689C17.606 18.6812 15.5283 20.7945 15.5283 23.4015C15.5283 26.0085 17.606 28.1218 20.1689 28.1218H24.0361C25.8578 28.1218 28.0861 29.1151 29.8052 30.0683C30.8082 30.6244 31.3096 30.9025 31.6381 30.8616C31.9426 30.8236 32.1729 30.6845 32.3514 30.4307C32.5439 30.157 32.5439 29.6092 32.5439 28.5138V18.2892C32.5439 17.1938 32.5439 16.6461 32.3514 16.3723C32.1729 16.1185 31.9426 15.9794 31.6381 15.9414C31.3096 15.9005 30.8082 16.1786 29.8052 16.7347C28.0861 17.6879 25.8578 18.6812 24.0361 18.6812Z" stroke="#BB3840" stroke-width="2" stroke-linecap="round" stroke-linejoin="round"/>
</svg>
